<svg xmlns="http://www.w3.org/2000/svg" width="21.686" height="20.739" viewBox="0 0 21.686 20.739">
  <g id="star" transform="translate(-0.001 -1.047)" fill="none">
    <path d="M11.89,1.7l2.446,4.956a1.167,1.167,0,0,0,.879.639l5.469.795a1.168,1.168,0,0,1,.647,1.992l-3.958,3.858a1.168,1.168,0,0,0-.336,1.034l.934,5.447a1.168,1.168,0,0,1-1.695,1.231l-4.892-2.572a1.169,1.169,0,0,0-1.087,0L5.408,21.649a1.168,1.168,0,0,1-1.695-1.231l.934-5.447a1.168,1.168,0,0,0-.336-1.034L.355,10.079A1.168,1.168,0,0,1,1,8.087l5.469-.795a1.167,1.167,0,0,0,.879-.639L9.8,1.7A1.167,1.167,0,0,1,11.89,1.7Z" stroke="none"/>
    <path d="M 10.84331321716309 2.046751022338867 C 10.73939323425293 2.046751022338867 10.7048225402832 2.116901397705078 10.69325256347656 2.140361785888672 L 8.247403144836426 7.096281051635742 C 7.931563377380371 7.736351013183594 7.321252822875977 8.179671287536621 6.615062713623047 8.282120704650879 L 1.145292282104492 9.076960563659668 C 1.119802474975586 9.08065128326416 1.042253494262695 9.091891288757324 1.010093688964844 9.190751075744629 C 0.9778022766113281 9.290051460266113 1.034172058105469 9.34502124786377 1.052522659301758 9.362920761108398 L 5.010372161865234 13.22079086303711 C 5.521442413330078 13.71924114227295 5.75432300567627 14.4366512298584 5.6334228515625 15.13933086395264 L 4.69929313659668 20.58673095703125 C 4.693063735961914 20.62303161621094 4.691133499145508 20.67091178894043 4.731912612915039 20.71928024291992 C 4.765892028808594 20.75959014892578 4.817962646484375 20.78563117980957 4.864582061767578 20.78563117980957 C 4.889242172241211 20.78563117980957 4.914823532104492 20.77848052978516 4.942903518676758 20.76372146606445 L 9.834953308105469 18.19193077087402 C 10.14471340179443 18.02922058105469 10.49345302581787 17.94322204589844 10.84348297119141 17.94322204589844 C 11.1934928894043 17.94322204589844 11.54223251342773 18.02922058105469 11.85230255126953 18.19209098815918 L 16.74380302429199 20.76358032226562 C 16.77181243896484 20.77830123901367 16.79746246337891 20.78544998168945 16.82220268249512 20.78544998168945 C 16.86892318725586 20.78544998168945 16.92109298706055 20.75937080383301 16.95511245727539 20.71902084350586 C 16.99581336975098 20.67074203491211 16.99389266967773 20.62296104431152 16.98765182495117 20.58658027648926 L 16.05363273620605 15.13986110687256 C 15.93265342712402 14.43666076660156 16.16552352905273 13.71925067901611 16.67679214477539 13.22059059143066 L 20.63450241088867 9.362851142883301 C 20.6529426574707 9.344881057739258 20.70905303955078 9.290201187133789 20.67688369750977 9.191170692443848 C 20.6446533203125 9.091931343078613 20.56680297851562 9.080611228942871 20.54131317138672 9.076910972595215 L 15.0721435546875 8.282151222229004 C 14.36571311950684 8.179671287536621 13.75540351867676 7.736351013183594 13.43959331512451 7.096341133117676 L 10.99370288848877 2.140331268310547 C 10.98227310180664 2.117181777954102 10.94752311706543 2.046751022338867 10.84331321716309 2.046751022338867 M 10.84331035614014 1.046749114990234 C 11.25975799560547 1.046749114990234 11.67626285552979 1.263765335083008 11.89045333862305 1.69780158996582 L 14.33633232116699 6.653781890869141 C 14.506422996521 6.998480796813965 14.83528327941895 7.237320899963379 15.21571350097656 7.292510986328125 L 20.68512344360352 8.087301254272461 C 21.64320373535156 8.226620674133301 22.02544212341309 9.403640747070312 21.33244323730469 10.07901096343994 L 17.37479400634766 13.93668079376221 C 17.09976196289062 14.20493125915527 16.97401237487793 14.59169101715088 17.03915405273438 14.97031116485596 L 17.97326278686523 20.41756057739258 C 18.13701248168945 21.3715705871582 17.13549423217773 22.09895133972168 16.27874374389648 21.64886093139648 L 11.38698291778564 19.07723045349121 C 11.04681301116943 18.89855194091797 10.64015293121338 18.89855194091797 10.29998302459717 19.07723045349121 L 5.408222198486328 21.64886093139648 C 4.551473617553711 22.09940719604492 3.549953460693359 21.37157249450684 3.713703155517578 20.41756057739258 L 4.64781379699707 14.97031116485596 C 4.712953567504883 14.59169101715088 4.587202072143555 14.20493125915527 4.312162399291992 13.93668079376221 L 0.354522705078125 10.07901096343994 C -0.3384876251220703 9.403190612792969 0.04375267028808594 8.226170539855957 1.001842498779297 8.087301254272461 L 6.471253395080566 7.292510986328125 C 6.851682662963867 7.237320899963379 7.180542945861816 6.998480796813965 7.350632667541504 6.653781890869141 L 9.796512603759766 1.69780158996582 C 10.01047325134277 1.263765335083008 10.4268627166748 1.046749114990234 10.84331035614014 1.046749114990234 Z" stroke="none" fill="#aaa"/>
  </g>
</svg>
