<svg xmlns="http://www.w3.org/2000/svg" width="21.686" height="20.739" viewBox="0 0 21.686 20.739">
  <path id="star" d="M11.89,1.7l2.446,4.956a1.167,1.167,0,0,0,.879.639l5.469.795a1.168,1.168,0,0,1,.647,1.992l-3.958,3.858a1.168,1.168,0,0,0-.336,1.034l.934,5.447a1.168,1.168,0,0,1-1.695,1.231l-4.892-2.572a1.169,1.169,0,0,0-1.087,0L5.408,21.649a1.168,1.168,0,0,1-1.695-1.231l.934-5.447a1.168,1.168,0,0,0-.336-1.034L.355,10.079A1.168,1.168,0,0,1,1,8.087l5.469-.795a1.167,1.167,0,0,0,.879-.639L9.8,1.7A1.167,1.167,0,0,1,11.89,1.7Z" transform="translate(-0.001 -1.047)" fill="#ffcf09"/>
</svg>
